<svg id="Capa_1" enable-background="new 0 0 512.013 512.013" height="512" viewBox="0 0 512.013 512.013" width="512" xmlns="http://www.w3.org/2000/svg"><g><g><path d="m226.939 271.149v40.444h74.892c40.512 0 73.354 32.842 73.354 73.354v117.064h-365.178v-117.064c0-40.512 32.842-73.354 73.354-73.354h74.892v-40.444" fill="#ffd0c7"/><path d="m209.917 311.594h91.914c40.512 0 73.354 32.842 73.354 73.354v117.064h-365.178v-117.065c0-40.512 32.842-73.354 73.354-73.354h90.736l18.499 23.062z" fill="#fff"/></g><g fill="#66e0f7"><path d="m427.514 10c-41.141 0-74.492 33.351-74.492 74.492s33.351 74.492 74.492 74.492 74.492-33.351 74.492-74.492-33.351-74.492-74.492-74.492zm0 86.368c-11.925 0-21.592-9.667-21.592-21.592s9.667-21.592 21.592-21.592 21.592 9.667 21.592 21.592-9.667 21.592-21.592 21.592z"/><path d="m401.902 159.894v48.46l-12.905 12.905 20.601 20.601-20.601 20.601 20.601 20.602-20.601 20.601 35.594 35.594 25.169-26.272v-154.001z"/><path d="m72.234 404.71h240.723v97.301h-240.723z"/><path d="m85.009 311.594h41.272v93.117h-41.272z"/><path d="m258.91 311.594h41.272v93.117h-41.272z" transform="matrix(-1 0 0 -1 559.091 716.304)"/></g><path d="m192.6 334.656-35.09-46.733-12.882 8.32c-11.84 7.647-14.521 23.828-5.779 34.884l24.668 31.201z" fill="#fff"/><path d="m192.6 334.656 35.09-46.733 12.882 8.32c11.84 7.647 14.521 23.828 5.779 34.884l-24.668 31.201z" fill="#fff"/><g><path d="m192.595 273.726c-39.212 0-71-31.788-71-71v-55.694c0-20.438 16.568-37.006 37.006-37.006h67.988c20.438 0 37.006 16.568 37.006 37.006v55.694c0 39.212-31.788 71-71 71z" fill="#ffd0c7"/></g><path d="m222.371 192.909h-59.552c-22.767 0-41.224-18.457-41.224-41.224h142c0 22.767-18.456 41.224-41.224 41.224z" fill="#ffda8f"/><path d="m207.432 75.168h-29.673c-31.018 0-56.163 25.145-56.163 56.163v20.354h142v-20.354c-.001-31.018-25.146-56.163-56.164-56.163z" fill="#ffda8f"/><g><path d="m301.83 301.594h-43.71c-2.684-5.556-6.852-10.348-12.124-13.752l-9.058-5.85v-10.843c0-.226-.019-.447-.034-.668 22.073-14.484 36.69-39.438 36.69-67.754v-71.396c0-36.482-29.681-66.163-66.163-66.163h-29.673c-36.483 0-66.164 29.681-66.164 66.163v71.396c0 28.316 14.617 53.27 36.69 67.754-.015.222-.034.443-.034.669v10.849l-9.049 5.844c-5.271 3.404-9.439 8.196-12.123 13.752h-43.718c-45.961 0-83.354 37.393-83.354 83.354v117.064c0 5.522 4.477 10 10 10h137.589c5.523 0 10-4.478 10-10s-4.477-10-10-10h-65.361v-77.301h220.723v77.301h-65.361c-5.523 0-10 4.478-10 10s4.477 10 10 10h137.588c5.523 0 10-4.478 10-10v-117.066c0-45.961-37.392-83.353-83.354-83.353zm-206.821 20h21.272v73.117h-21.272zm41.272 22.409 19.392 24.527c1.743 2.205 4.334 3.574 7.139 3.772.236.018.471.025.706.025 2.557 0 5.027-.98 6.893-2.755l22.19-21.113 22.19 21.113c1.865 1.774 4.336 2.755 6.893 2.755.235 0 .47-.008.706-.025 2.804-.198 5.396-1.567 7.139-3.772l19.382-24.516v50.696h-112.63zm132.629-22.409h21.271v73.117h-21.271zm-27.596-7.554c.648 3.91-.349 7.775-2.808 10.885l-17.87 22.604-14.697-13.983 24.152-32.167 5.055 3.265c3.33 2.149 5.52 5.486 6.168 9.396zm-109.719-182.709c0-25.454 20.709-46.163 46.164-46.163h29.673c25.455 0 46.163 20.709 46.163 46.163v10.354h-122zm120.358 30.354c-4.179 12.327-15.861 21.224-29.582 21.224h-59.551c-13.721 0-25.403-8.896-29.582-21.224zm-120.358 41.042v-10.477c8.651 6.674 19.478 10.658 31.224 10.658h59.552c11.746 0 22.573-3.984 31.224-10.657v10.476c0 33.635-27.364 60.999-61 60.999-33.635 0-61-27.365-61-60.999zm61 80.999c8.479 0 16.656-1.316 24.343-3.744v5.086c0 .164.017.324.025.486l-24.363 32.448-24.349-32.428v-5.592c7.688 2.428 15.865 3.744 24.344 3.744zm-48.709 30.314c.648-3.91 2.838-7.247 6.167-9.397l5.055-3.265 24.153 32.167-14.697 13.983-17.871-22.604c-2.458-3.109-3.454-6.974-2.807-10.884zm-123.879 177.972v-107.065c0-32.101 24.005-58.684 55.002-62.786v72.549h-2.775c-5.523 0-10 4.478-10 10v87.301h-42.227zm345.177 0h-42.227v-87.301c0-5.522-4.477-10-10-10h-2.775v-72.549c30.998 4.102 55.002 30.685 55.002 62.786z"/><path d="m512.007 84.492c0-46.589-37.903-84.492-84.493-84.492s-84.493 37.903-84.493 84.492c0 33.869 20.041 63.131 48.88 76.594v43.126l-9.976 9.976c-1.875 1.875-2.929 4.419-2.929 7.071s1.054 5.195 2.929 7.071l13.53 13.53-13.53 13.529c-1.875 1.876-2.929 4.419-2.929 7.071s1.054 5.195 2.929 7.071l13.53 13.53-13.53 13.53c-1.875 1.876-2.929 4.419-2.929 7.071s1.054 5.196 2.929 7.071l35.595 35.594c1.876 1.876 4.42 2.929 7.071 2.929.036 0 .071 0 .107-.001 2.689-.028 5.253-1.14 7.114-3.081l25.169-26.271c1.783-1.861 2.779-4.34 2.779-6.918v-150.41c30.636-12.699 52.247-42.909 52.247-78.083zm-72.247 224.477-15.322 15.994-21.299-21.299 13.53-13.53c3.905-3.905 3.905-10.237 0-14.143l-13.53-13.53 13.53-13.529c1.875-1.876 2.929-4.419 2.929-7.071s-1.054-5.195-2.929-7.071l-13.53-13.53 5.833-5.833c1.875-1.875 2.929-4.419 2.929-7.071v-40.84c5.064.95 10.277 1.47 15.613 1.47 4.16 0 8.246-.315 12.246-.898zm-12.246-159.985c-35.562 0-64.493-28.931-64.493-64.492s28.932-64.492 64.493-64.492 64.492 28.931 64.492 64.492-28.931 64.492-64.492 64.492z"/><path d="m427.514 43.184c-17.42 0-31.592 14.173-31.592 31.593s14.172 31.592 31.592 31.592 31.592-14.172 31.592-31.592-14.172-31.593-31.592-31.593zm0 43.184c-6.392 0-11.592-5.2-11.592-11.592 0-6.393 5.2-11.593 11.592-11.593s11.592 5.2 11.592 11.593c0 6.392-5.2 11.592-11.592 11.592z"/><circle cx="192.595" cy="502.013" r="10"/></g></g></svg>